<svg width="26" height="24" viewBox="0 0 26 24" fill="none" xmlns="http://www.w3.org/2000/svg">
<path fill-rule="evenodd" clip-rule="evenodd" d="M7.84402 15.0503C9.21148 13.7375 11.0662 13 13 13C14.9339 13 16.7886 13.7375 18.1559 15.0503C19.5234 16.363 20.2917 18.1435 20.2917 20C20.2917 20.5523 19.8253 21 19.25 21C18.6747 21 18.2083 20.5523 18.2083 20C18.2083 18.6739 17.6596 17.4021 16.6828 16.4645C15.7062 15.5268 14.3814 15 13 15C11.6187 15 10.2939 15.5268 9.31717 16.4645C8.34041 17.4021 7.79168 18.6739 7.79168 20C7.79168 20.5523 7.3253 21 6.75001 21C6.17472 21 5.70834 20.5523 5.70834 20C5.70834 18.1435 6.47657 16.363 7.84402 15.0503Z" fill="#6F7785"/>
<path fill-rule="evenodd" clip-rule="evenodd" d="M13 7C11.2741 7 9.87499 8.34315 9.87499 10C9.87499 11.6569 11.2741 13 13 13C14.7259 13 16.125 11.6569 16.125 10C16.125 8.34315 14.7259 7 13 7ZM7.79166 10C7.79166 7.23858 10.1235 5 13 5C15.8764 5 18.2083 7.23858 18.2083 10C18.2083 12.7614 15.8764 15 13 15C10.1235 15 7.79166 12.7614 7.79166 10Z" fill="#6F7785"/>
<path fill-rule="evenodd" clip-rule="evenodd" d="M13 3C7.82232 3 3.62499 7.02944 3.62499 12C3.62499 16.9706 7.82232 21 13 21C18.1777 21 22.375 16.9706 22.375 12C22.375 7.02944 18.1777 3 13 3ZM1.54166 12C1.54166 5.92487 6.67173 1 13 1C19.3282 1 24.4583 5.92487 24.4583 12C24.4583 18.0751 19.3282 23 13 23C6.67173 23 1.54166 18.0751 1.54166 12Z" fill="#6F7785"/>
</svg>
