<svg width="26" height="24" viewBox="0 0 26 24" fill="none" xmlns="http://www.w3.org/2000/svg">
<path fill-rule="evenodd" clip-rule="evenodd" d="M4.66667 6C4.09138 6 3.62501 6.44772 3.62501 7V17C3.62501 17.5523 4.09138 18 4.66667 18H21.3333C21.9087 18 22.375 17.5523 22.375 17V7C22.375 6.44772 21.9087 6 21.3333 6H4.66667ZM1.54167 7C1.54167 5.34315 2.94079 4 4.66667 4H21.3333C23.0593 4 24.4583 5.34315 24.4583 7V17C24.4583 18.6569 23.0593 20 21.3333 20H4.66667C2.94079 20 1.54167 18.6569 1.54167 17V7Z" fill="currentColor"/>
<path fill-rule="evenodd" clip-rule="evenodd" d="M1.54167 10C1.54167 9.44772 2.00805 9 2.58334 9H23.4167C23.992 9 24.4583 9.44772 24.4583 10C24.4583 10.5523 23.992 11 23.4167 11H2.58334C2.00805 11 1.54167 10.5523 1.54167 10Z" fill="currentColor"/>
</svg>
