<svg width="26" height="24" viewBox="0 0 26 24" fill="none" xmlns="http://www.w3.org/2000/svg">
<path fill-rule="evenodd" clip-rule="evenodd" d="M9.44353 11.5858C9.83423 11.2107 10.3641 11 10.9167 11H15.0833C15.6358 11 16.1657 11.2107 16.5565 11.5858C16.9472 11.9609 17.1667 12.4696 17.1667 13V21C17.1667 21.5523 16.7003 22 16.125 22C15.5497 22 15.0833 21.5523 15.0833 21V13H10.9167V21C10.9167 21.5523 10.4503 22 9.875 22C9.29971 22 8.83333 21.5523 8.83333 21V13C8.83333 12.4696 9.05282 11.9609 9.44353 11.5858Z" fill="black"/>
<path fill-rule="evenodd" clip-rule="evenodd" d="M12.3299 3.23489L5.04138 9.23128C5.03957 9.23277 5.03776 9.23425 5.03594 9.23573C4.92021 9.32963 4.82721 9.44663 4.76343 9.57859C4.69965 9.71054 4.66663 9.85426 4.66667 9.99973V19C4.66667 19.2652 4.77642 19.5195 4.97176 19.7071C5.16711 19.8946 5.43206 20 5.70833 20H20.2917C20.5679 20 20.8329 19.8946 21.0282 19.7071C21.2235 19.5195 21.3333 19.2652 21.3333 19V9.99973C21.3333 9.85426 21.3003 9.71054 21.2366 9.57859C21.1728 9.44663 21.0798 9.32963 20.9641 9.23573C20.9623 9.23425 20.9604 9.23277 20.9586 9.23128L13.6701 3.23489C13.4825 3.08351 13.2452 3.00049 13 3.00049C12.7548 3.00049 12.5175 3.08351 12.3299 3.23489ZM10.9828 1.70921C11.5469 1.25157 12.2615 1.00049 13 1.00049C13.7385 1.00049 14.4531 1.25157 15.0172 1.70921C15.019 1.71068 15.0208 1.71217 15.0226 1.71366L22.3119 7.7107C22.6577 7.99197 22.9356 8.34209 23.1264 8.73678C23.3177 9.13257 23.4168 9.56365 23.4167 9.99997C23.4167 9.99987 23.4167 10 23.4167 9.99997V19C23.4167 19.7956 23.0874 20.5587 22.5014 21.1213C21.9153 21.6839 21.1205 22 20.2917 22H5.70833C4.87953 22 4.08468 21.6839 3.49862 21.1213C2.91257 20.5587 2.58333 19.7956 2.58333 19V10.0002C2.58333 10.0002 2.58333 10.0001 2.58333 10.0002C2.58326 9.56388 2.68232 9.13257 2.87362 8.73678C3.06441 8.34207 3.34234 7.99193 3.68813 7.71065L10.9774 1.71366C10.9792 1.71217 10.981 1.71068 10.9828 1.70921Z" fill="black"/>
</svg>
