<svg width="16" height="16" viewBox="0 0 16 16" fill="none" xmlns="http://www.w3.org/2000/svg">
<path fill-rule="evenodd" clip-rule="evenodd" d="M8 1.99996C6.76233 1.99996 5.57534 2.49163 4.70017 3.36679C3.825 4.24197 3.33333 5.42895 3.33333 6.66663C3.33333 8.10616 4.14445 9.65776 5.19849 11.0426C6.21735 12.3813 7.38647 13.4653 8 13.9977C8.61353 13.4653 9.78267 12.3813 10.8015 11.0426C11.8555 9.65776 12.6667 8.10616 12.6667 6.66663C12.6667 5.42895 12.175 4.24197 11.2998 3.36679C10.4247 2.49163 9.23767 1.99996 8 1.99996ZM3.75736 2.42399C4.88258 1.29877 6.4087 0.666626 8 0.666626C9.59127 0.666626 11.1174 1.29877 12.2427 2.42399C13.3679 3.54921 14 5.07533 14 6.66663C14 8.55576 12.9648 10.4018 11.8625 11.8502C10.7447 13.3187 9.47313 14.4874 8.83633 15.0372C8.825 15.047 8.81333 15.0564 8.80133 15.0654C8.57027 15.2392 8.28907 15.3332 8 15.3332C7.71093 15.3332 7.42973 15.2392 7.19867 15.0654C7.18667 15.0564 7.175 15.047 7.16367 15.0372C6.52685 14.4874 5.25525 13.3187 4.13751 11.8502C3.03521 10.4018 2 8.55576 2 6.66663C2 5.07533 2.63214 3.54921 3.75736 2.42399Z" fill="#6F7785"/>
<path fill-rule="evenodd" clip-rule="evenodd" d="M8.00001 5.33333C7.26361 5.33333 6.66668 5.93029 6.66668 6.66667C6.66668 7.40307 7.26361 8 8.00001 8C8.73641 8 9.33334 7.40307 9.33334 6.66667C9.33334 5.93029 8.73641 5.33333 8.00001 5.33333ZM5.33334 6.66667C5.33334 5.19391 6.52725 4 8.00001 4C9.47274 4 10.6667 5.19391 10.6667 6.66667C10.6667 8.1394 9.47274 9.33333 8.00001 9.33333C6.52725 9.33333 5.33334 8.1394 5.33334 6.66667Z" fill="#6F7785"/>
</svg>
