<svg width="26" height="24" viewBox="0 0 26 24" fill="none" xmlns="http://www.w3.org/2000/svg">
<path fill-rule="evenodd" clip-rule="evenodd" d="M9.40958 4.34145L4.66666 6.61855V19.381V19.3835L8.4778 17.5536C8.91155 17.3455 9.39011 17.2371 9.875 17.2371C10.3599 17.2371 10.8381 17.3454 11.2719 17.5535L15.6594 19.6595C15.6593 19.6595 15.6595 19.6595 15.6594 19.6595C15.804 19.7288 15.9634 19.7649 16.125 19.7649C16.2866 19.7649 16.4458 19.7289 16.5903 19.6596C16.5902 19.6596 16.5904 19.6596 16.5903 19.6596L21.333 17.3826L21.3333 4.61755L17.5219 6.44755C17.0881 6.65563 16.6099 6.76395 16.125 6.76395C15.6401 6.76395 15.1619 6.65563 14.7281 6.44755L10.3406 4.34155C10.3407 4.34159 10.3406 4.34151 10.3406 4.34155C10.1961 4.27226 10.0366 4.23608 9.875 4.23608C9.71349 4.23608 9.55408 4.27219 9.40958 4.34145ZM8.47812 2.55248C8.91187 2.34441 9.39011 2.23608 9.875 2.23608C10.3599 2.23608 10.8381 2.34441 11.2719 2.55248L15.6594 4.65848C15.6593 4.65844 15.6595 4.65852 15.6594 4.65848C15.804 4.72777 15.9634 4.76395 16.125 4.76395C16.2866 4.76395 16.4458 4.72789 16.5903 4.65864L20.4021 2.82848C20.7199 2.676 21.0731 2.6041 21.4281 2.61962C21.7831 2.63514 22.128 2.73756 22.4301 2.91714C22.7322 3.09673 22.9815 3.34751 23.1542 3.64565C23.3267 3.94349 23.417 4.2787 23.4167 4.61948C23.4167 4.61915 23.4167 4.61981 23.4167 4.61948V17.3835C23.4165 17.7549 23.3085 18.1188 23.1051 18.4346C22.9017 18.7503 22.6107 19.0054 22.2649 19.1714C22.265 19.1714 22.2648 19.1715 22.2649 19.1714L17.5222 21.4484C17.0884 21.6565 16.6099 21.7649 16.125 21.7649C15.6401 21.7649 15.1619 21.6566 14.7281 21.4485L10.3406 19.3425C10.3407 19.3426 10.3406 19.3425 10.3406 19.3425C10.1961 19.2733 10.0366 19.2371 9.875 19.2371C9.71349 19.2371 9.5542 19.2731 9.4097 19.3424C9.40981 19.3424 9.40959 19.3424 9.4097 19.3424L5.59793 21.1725C5.2799 21.3251 4.92652 21.397 4.57137 21.3814C4.21624 21.3658 3.87116 21.2632 3.569 21.0834C3.26683 20.9035 3.01763 20.6525 2.8451 20.3541C2.67282 20.0561 2.58272 19.7208 2.58333 19.38V6.61748C2.58354 6.24616 2.69143 5.88222 2.8949 5.56643C3.09832 5.25073 3.38925 4.99561 3.73511 4.82963C3.73502 4.82968 3.73522 4.82958 3.73511 4.82963L8.47812 2.55248Z" fill="inherit"/>
<path fill-rule="evenodd" clip-rule="evenodd" d="M16.125 4.76392C16.7003 4.76392 17.1667 5.21163 17.1667 5.76392V20.7639C17.1667 21.3162 16.7003 21.7639 16.125 21.7639C15.5497 21.7639 15.0833 21.3162 15.0833 20.7639V5.76392C15.0833 5.21163 15.5497 4.76392 16.125 4.76392Z" fill="inherit"/>
<path fill-rule="evenodd" clip-rule="evenodd" d="M9.875 2.23608C10.4503 2.23608 10.9167 2.6838 10.9167 3.23608V18.2361C10.9167 18.7884 10.4503 19.2361 9.875 19.2361C9.2997 19.2361 8.83333 18.7884 8.83333 18.2361V3.23608C8.83333 2.6838 9.2997 2.23608 9.875 2.23608Z" fill="inherit"/>
</svg>
