<svg width="22" height="22" viewBox="0 0 22 22" fill="none" xmlns="http://www.w3.org/2000/svg">
<path fill-rule="evenodd" clip-rule="evenodd" d="M15.5833 10.0834C16.0896 10.0834 16.5 10.4938 16.5 11V14.6667C16.5 15.1529 16.3069 15.6192 15.963 15.9631C15.6192 16.3069 15.1529 16.5 14.6667 16.5H11C10.4937 16.5 10.0833 16.0896 10.0833 15.5834C10.0833 15.0771 10.4937 14.6667 11 14.6667H14.6667V11C14.6667 10.4938 15.0771 10.0834 15.5833 10.0834Z" fill="white"/>
<path fill-rule="evenodd" clip-rule="evenodd" d="M14.6667 2.75004C14.6667 2.24378 15.0771 1.83337 15.5833 1.83337H17.4167C18.146 1.83337 18.8455 2.1231 19.3612 2.63883C19.8769 3.15456 20.1667 3.85403 20.1667 4.58337V6.41671C20.1667 6.92296 19.7563 7.33337 19.25 7.33337C18.7437 7.33337 18.3333 6.92296 18.3333 6.41671V4.58337C18.3333 4.34026 18.2367 4.1071 18.0648 3.93519C17.893 3.76329 17.6598 3.66671 17.4167 3.66671H15.5833C15.0771 3.66671 14.6667 3.2563 14.6667 2.75004Z" fill="white"/>
<path fill-rule="evenodd" clip-rule="evenodd" d="M15.5833 5.5C16.0896 5.5 16.5 5.91041 16.5 6.41667V7.33333C16.5 7.83959 16.0896 8.25 15.5833 8.25C15.0771 8.25 14.6667 7.83959 14.6667 7.33333V6.41667C14.6667 5.91041 15.0771 5.5 15.5833 5.5Z" fill="white"/>
<path fill-rule="evenodd" clip-rule="evenodd" d="M19.25 14.6666C19.7563 14.6666 20.1667 15.077 20.1667 15.5833V17.4166C20.1667 18.146 19.8769 18.8454 19.3612 19.3611C18.8455 19.8769 18.1461 20.1666 17.4167 20.1666H15.5833C15.0771 20.1666 14.6667 19.7562 14.6667 19.25C14.6667 18.7437 15.0771 18.3333 15.5833 18.3333H17.4167C17.6598 18.3333 17.893 18.2367 18.0648 18.0648C18.2367 17.8929 18.3333 17.6597 18.3333 17.4166V15.5833C18.3333 15.077 18.7437 14.6666 19.25 14.6666Z" fill="white"/>
<path fill-rule="evenodd" clip-rule="evenodd" d="M4.58333 3.66671C4.34021 3.66671 4.10706 3.76329 3.93514 3.93519C3.76324 4.1071 3.66666 4.34026 3.66666 4.58337V6.41671C3.66666 6.92296 3.25625 7.33337 2.74999 7.33337C2.24374 7.33337 1.83333 6.92296 1.83333 6.41671V4.58337C1.83333 3.85403 2.12306 3.15456 2.63878 2.63883C3.15451 2.1231 3.85398 1.83337 4.58333 1.83337H6.41666C6.92292 1.83337 7.33333 2.24378 7.33333 2.75004C7.33333 3.2563 6.92292 3.66671 6.41666 3.66671H4.58333Z" fill="white"/>
<path fill-rule="evenodd" clip-rule="evenodd" d="M5.5 15.5833C5.5 15.077 5.91041 14.6666 6.41667 14.6666H6.42583C6.93209 14.6666 7.3425 15.077 7.3425 15.5833C7.3425 16.0896 6.93209 16.5 6.42583 16.5H6.41667C5.91041 16.5 5.5 16.0896 5.5 15.5833Z" fill="white"/>
<path fill-rule="evenodd" clip-rule="evenodd" d="M2.74999 14.6666C3.25625 14.6666 3.66666 15.077 3.66666 15.5833V17.4166C3.66666 17.6597 3.76324 17.8929 3.93514 18.0648C4.10706 18.2367 4.34021 18.3333 4.58333 18.3333H6.41666C6.92292 18.3333 7.33333 18.7437 7.33333 19.25C7.33333 19.7562 6.92292 20.1666 6.41666 20.1666H4.58333C3.85398 20.1666 3.15451 19.8769 2.63878 19.3611C2.12306 18.8454 1.83333 18.1459 1.83333 17.4166V15.5833C1.83333 15.077 2.24374 14.6666 2.74999 14.6666Z" fill="white"/>
<path fill-rule="evenodd" clip-rule="evenodd" d="M7.33333 7.33333V10.0833H10.0833V7.33333H7.33333ZM7.33222 10.0833C7.3322 10.0832 7.33217 10.0832 7.33222 10.0833ZM5.5 7.33333C5.5 6.32081 6.32081 5.5 7.33333 5.5H10.0833C11.0959 5.5 11.9167 6.32081 11.9167 7.33333V10.0833C11.9167 11.0959 11.0959 11.9167 10.0833 11.9167H7.33333C6.32081 11.9167 5.5 11.0959 5.5 10.0833V7.33333Z" fill="white"/>
</svg>
