<svg width="50" height="50" viewBox="0 0 50 50" fill="none" xmlns="http://www.w3.org/2000/svg">
<path fill-rule="evenodd" clip-rule="evenodd" d="M35.4167 22.9166C36.5673 22.9166 37.5 23.8493 37.5 25V33.3333C37.5 34.4383 37.061 35.4981 36.2796 36.2795C35.4981 37.061 34.4383 37.5 33.3333 37.5H25C23.8494 37.5 22.9167 36.5673 22.9167 35.4166C22.9167 34.266 23.8494 33.3333 25 33.3333H33.3333V25C33.3333 23.8493 34.266 22.9166 35.4167 22.9166Z" fill="#FF7049"/>
<path fill-rule="evenodd" clip-rule="evenodd" d="M33.3333 6.24996C33.3333 5.09938 34.2661 4.16663 35.4167 4.16663H39.5833C41.2408 4.16663 42.8306 4.82511 44.0027 5.99721C45.1748 7.16931 45.8333 8.75902 45.8333 10.4166V14.5833C45.8333 15.7339 44.9006 16.6666 43.75 16.6666C42.5994 16.6666 41.6667 15.7339 41.6667 14.5833V10.4166C41.6667 9.86408 41.4471 9.33419 41.0565 8.94348C40.6658 8.55279 40.1358 8.33329 39.5833 8.33329H35.4167C34.2661 8.33329 33.3333 7.40054 33.3333 6.24996Z" fill="#FF7049"/>
<path fill-rule="evenodd" clip-rule="evenodd" d="M35.4167 12.5C36.5673 12.5 37.5 13.4327 37.5 14.5833V16.6667C37.5 17.8172 36.5673 18.75 35.4167 18.75C34.2661 18.75 33.3333 17.8172 33.3333 16.6667V14.5833C33.3333 13.4327 34.2661 12.5 35.4167 12.5Z" fill="#FF7049"/>
<path fill-rule="evenodd" clip-rule="evenodd" d="M43.75 33.3334C44.9006 33.3334 45.8333 34.2661 45.8333 35.4167V39.5834C45.8333 41.2411 45.1748 42.8307 44.0027 44.0027C42.8306 45.1748 41.2411 45.8334 39.5833 45.8334H35.4167C34.2661 45.8334 33.3333 44.9007 33.3333 43.75C33.3333 42.5994 34.2661 41.6667 35.4167 41.6667H39.5833C40.1358 41.6667 40.6658 41.4471 41.0565 41.0565C41.4471 40.6659 41.6667 40.1359 41.6667 39.5834V35.4167C41.6667 34.2661 42.5994 33.3334 43.75 33.3334Z" fill="#FF7049"/>
<path fill-rule="evenodd" clip-rule="evenodd" d="M10.4167 8.33329C9.86411 8.33329 9.33422 8.55279 8.94351 8.94348C8.55282 9.33419 8.33332 9.86408 8.33332 10.4166V14.5833C8.33332 15.7339 7.40057 16.6666 6.24999 16.6666C5.09941 16.6666 4.16666 15.7339 4.16666 14.5833V10.4166C4.16666 8.75902 4.82514 7.16931 5.99724 5.99721C7.16934 4.82511 8.75905 4.16663 10.4167 4.16663H14.5833C15.7339 4.16663 16.6667 5.09938 16.6667 6.24996C16.6667 7.40054 15.7339 8.33329 14.5833 8.33329H10.4167Z" fill="#FF7049"/>
<path fill-rule="evenodd" clip-rule="evenodd" d="M12.5 35.4167C12.5 34.2661 13.4327 33.3334 14.5833 33.3334H14.6042C15.7548 33.3334 16.6875 34.2661 16.6875 35.4167C16.6875 36.5673 15.7548 37.5 14.6042 37.5H14.5833C13.4327 37.5 12.5 36.5673 12.5 35.4167Z" fill="#FF7049"/>
<path fill-rule="evenodd" clip-rule="evenodd" d="M6.24999 33.3334C7.40057 33.3334 8.33332 34.2661 8.33332 35.4167V39.5834C8.33332 40.1359 8.55282 40.6659 8.94351 41.0565C9.33422 41.4471 9.86411 41.6667 10.4167 41.6667H14.5833C15.7339 41.6667 16.6667 42.5994 16.6667 43.75C16.6667 44.9007 15.7339 45.8334 14.5833 45.8334H10.4167C8.75905 45.8334 7.16934 45.1748 5.99724 44.0027C4.82514 42.8307 4.16666 41.2409 4.16666 39.5834V35.4167C4.16666 34.2661 5.09941 33.3334 6.24999 33.3334Z" fill="#FF7049"/>
<path fill-rule="evenodd" clip-rule="evenodd" d="M16.6667 16.6667V22.9167H22.9167V16.6667H16.6667ZM16.6641 22.9167C16.664 22.9165 16.6641 22.9165 16.6641 22.9167V22.9167ZM12.5 16.6667C12.5 14.3655 14.3655 12.5 16.6667 12.5H22.9167C25.2179 12.5 27.0833 14.3655 27.0833 16.6667V22.9167C27.0833 25.2179 25.2179 27.0833 22.9167 27.0833H16.6667C14.3655 27.0833 12.5 25.2179 12.5 22.9167V16.6667Z" fill="#FF7049"/>
</svg>
