<svg width="18" height="18" viewBox="0 0 18 18" fill="none" xmlns="http://www.w3.org/2000/svg">
<path fill-rule="evenodd" clip-rule="evenodd" d="M8.25 3C5.35051 3 3 5.35051 3 8.25C3 11.1495 5.35051 13.5 8.25 13.5C11.1495 13.5 13.5 11.1495 13.5 8.25C13.5 5.35051 11.1495 3 8.25 3ZM1.5 8.25C1.5 4.52208 4.52208 1.5 8.25 1.5C11.978 1.5 15 4.52208 15 8.25C15 11.978 11.978 15 8.25 15C4.52208 15 1.5 11.978 1.5 8.25Z" fill="#6F7785"/>
<path fill-rule="evenodd" clip-rule="evenodd" d="M11.9946 11.9946C12.2876 11.7017 12.7624 11.7017 13.0553 11.9946L16.2803 15.2196C16.5732 15.5125 16.5732 15.9873 16.2803 16.2803C15.9874 16.5732 15.5126 16.5732 15.2196 16.2803L11.9946 13.0553C11.7017 12.7623 11.7017 12.2875 11.9946 11.9946Z" fill="#6F7785"/>
</svg>
